<svg xmlns="http://www.w3.org/2000/svg" xmlns:xlink="http://www.w3.org/1999/xlink" width="251" height="341" viewBox="0 0 251 341"><defs><clipPath id="clip-path"><path id="Subtraction_5" data-name="Subtraction 5" d="M109.5,219a110.366,110.366,0,0,1-22.092-2.23,109.458,109.458,0,0,1-85.183-85.2,110.568,110.568,0,0,1,0-44.136A109.458,109.458,0,0,1,87.432,2.225a110.568,110.568,0,0,1,44.136,0,109.456,109.456,0,0,1,85.207,85.206,110.567,110.567,0,0,1,0,44.136,109.456,109.456,0,0,1-85.206,85.208A110.311,110.311,0,0,1,109.5,219Zm0-165.815a56.752,56.752,0,0,0-11.36,1.147A56.307,56.307,0,0,0,54.33,98.15a56.863,56.863,0,0,0,0,22.7,56.307,56.307,0,0,0,43.82,43.82,56.863,56.863,0,0,0,22.7,0,56.292,56.292,0,0,0,43.818-43.821,56.863,56.863,0,0,0,0-22.7,56.283,56.283,0,0,0-43.816-43.816A56.729,56.729,0,0,0,109.5,53.185Z" fill="#525252"></path></clipPath></defs><g id="Group_1437" data-name="Group 1437" transform="translate(-1082 -2211)"><g id="Group_1413" data-name="Group 1413" transform="translate(0 1382)"><rect id="Rectangle_5016" data-name="Rectangle 5016" width="246" height="31" transform="translate(1082 1139)" fill="#dbdbdb"></rect><text id="Margin:_11_349" data-name="Margin: 11,349" transform="translate(1140 1161)" font-size="18" font-family="Merriweather-Bold, Merriweather" font-weight="700"><tspan x="0" y="0">Margin: 11,349</tspan></text></g><g id="Group_1416" data-name="Group 1416" transform="translate(7 1354)"><text id="Total_Votes" data-name="Total Votes" transform="translate(1169 971)" fill="#585858" font-size="16" font-family="Merriweather-Bold, Merriweather" font-weight="700"><tspan x="0" y="0">Total Votes</tspan></text><text id="_1_44_124" data-name="1,44,124" transform="translate(1168 993)" fill="#033b5f" font-size="22" font-family="Merriweather-Bold, Merriweather" font-weight="700"><tspan x="0" y="0">1,44,124</tspan></text></g><text id="Opponent_s_votes" data-name="Opponent&#x2019;s votes" transform="translate(1208 2503)" fill="#035c96" font-size="14" font-family="Merriweather-Bold, Merriweather" font-weight="700"><tspan x="0" y="0">Opponent’s votes</tspan></text><text id="My_votes" data-name="My votes" transform="translate(1082 2503)" fill="#035c96" font-size="14" font-family="Merriweather-Bold, Merriweather" font-weight="700"><tspan x="0" y="0">My votes</tspan></text><text id="Others" transform="translate(1106 2251)" fill="#035c96" font-size="14" font-family="Merriweather-Bold, Merriweather" font-weight="700"><tspan x="0" y="0">Others</tspan></text><text id="_63_283" data-name="63,283" transform="translate(1264 2481)" fill="#585858" font-size="19" font-family="Merriweather-Bold, Merriweather" font-weight="700"><tspan x="0" y="0">63,283</tspan></text><text id="_6209" data-name="6209" transform="translate(1106 2229)" fill="#585858" font-size="18" font-family="Merriweather-Bold, Merriweather" font-weight="700"><tspan x="0" y="0">6209</tspan></text><text id="_74_632" data-name="74,632" transform="translate(1083 2481)" fill="#585858" font-size="18" font-family="Merriweather-Bold, Merriweather" font-weight="700"><tspan x="0" y="0">74,632</tspan></text><path id="Path_11410" data-name="Path 11410" d="M0,45.027V0H11.846" transform="translate(1207.775 2223.131) rotate(90)" fill="none" stroke="#707070" stroke-width="1" stroke-dasharray="2" opacity="0.603"></path><circle id="Ellipse_370" data-name="Ellipse 370" cx="4" cy="4" r="4" transform="translate(1159 2219)" fill="#880505"></circle><g id="Group_1415" data-name="Group 1415" transform="translate(1106.578 2417.427)"><path id="Path_11407" data-name="Path 11407" d="M723.109,898.257V855.2h22.828" transform="translate(-719.579 -855.198)" fill="none" stroke="#707070" stroke-width="1" stroke-dasharray="2" opacity="0.603"></path><ellipse id="Ellipse_367" data-name="Ellipse 367" cx="3.5" cy="4" rx="3.5" ry="4" transform="translate(0.422 36.573)" fill="#398af5"></ellipse></g><g id="Group_1417" data-name="Group 1417" transform="translate(1302.368 2417.427)"><path id="Path_11407-2" data-name="Path 11407" d="M735.979,898.257V855.2h-12.87" transform="translate(-723.109 -855.198)" fill="none" stroke="#707070" stroke-width="1" stroke-dasharray="2" opacity="0.603"></path><ellipse id="Ellipse_367-2" data-name="Ellipse 367" cx="3.5" cy="4" rx="3.5" ry="4" transform="translate(8.632 36.573)" fill="#c93d3d"></ellipse></g><g id="Group_1432" data-name="Group 1432" transform="translate(4 -285)"><path id="Subtraction_6" data-name="Subtraction 6" d="M109.5,219a110.366,110.366,0,0,1-22.092-2.23,109.458,109.458,0,0,1-85.183-85.2,110.568,110.568,0,0,1,0-44.136A109.458,109.458,0,0,1,87.432,2.225a110.568,110.568,0,0,1,44.136,0,109.456,109.456,0,0,1,85.207,85.206,110.567,110.567,0,0,1,0,44.136,109.456,109.456,0,0,1-85.206,85.208A110.311,110.311,0,0,1,109.5,219Zm0-165.815a56.752,56.752,0,0,0-11.36,1.147A56.307,56.307,0,0,0,54.33,98.15a56.863,56.863,0,0,0,0,22.7,56.307,56.307,0,0,0,43.82,43.82,56.863,56.863,0,0,0,22.7,0,56.292,56.292,0,0,0,43.818-43.821,56.863,56.863,0,0,0,0-22.7,56.283,56.283,0,0,0-43.816-43.816A56.729,56.729,0,0,0,109.5,53.185Z" transform="translate(1107 2521)" fill="#880505" opacity="0.85"></path><g id="Mask_Group_172" data-name="Mask Group 172" transform="translate(1107 2521)" opacity="0.85" clip-path="url(#clip-path)"><path id="Path_11413" data-name="Path 11413" d="M6321.644,2839.185l10.047-2.027-16.1-61.644s-43.483,4.506-63.447,34.478-28.865,74.237-24.806,102.625,51.6,82.454,73.978,86.421,87.755-4.758,87.755-4.758l-25.915-63.751s-49.626,7.768-58.688-27.047-4.1-50.341,6.461-55.449S6321.644,2839.185,6321.644,2839.185Z" transform="translate(-6236.196 -2775.838)" fill="#4673cc"></path><path id="Path_11414" data-name="Path 11414" d="M6406.491,2769.21v61.142s35.407,15.814,37.389,44.313,14.526,31.112-4.284,44.328-15.219,8.565-15.219,8.565l25.678,63.67s52.7-16.079,62.745-43.5,22.048-73.666,16.218-90.653-15.8-58.318-45.763-71-61.623-20.309-62.732-20.309S6406.491,2769.21,6406.491,2769.21Z" transform="translate(-6297.364 -2772.486)" fill="#c93d3d"></path></g></g><text id="Total_Votes-2" data-name="Total Votes" transform="translate(1221 2387)" fill="#585858" font-size="18" font-family="Merriweather-Bold, Merriweather" font-weight="700"><tspan x="-26" y="0">(2011)</tspan></text></g></svg>