<svg xmlns="http://www.w3.org/2000/svg" xmlns:xlink="http://www.w3.org/1999/xlink" width="251" height="341" viewBox="0 0 251 341"><defs><clipPath id="clip-path"><path id="Subtraction_7" data-name="Subtraction 7" d="M109,218a109.8,109.8,0,0,1-21.967-2.214A108.96,108.96,0,0,1,2.215,130.968a110.063,110.063,0,0,1,0-43.934A108.958,108.958,0,0,1,87.032,2.215a110.063,110.063,0,0,1,43.934,0,108.958,108.958,0,0,1,84.818,84.817,110.062,110.062,0,0,1,0,43.934,108.958,108.958,0,0,1-84.817,84.818A109.8,109.8,0,0,1,109,218Zm0-165.057a56.468,56.468,0,0,0-11.3,1.139A56.047,56.047,0,0,0,54.081,97.7a56.6,56.6,0,0,0,0,22.595A56.056,56.056,0,0,0,97.7,163.918a56.6,56.6,0,0,0,22.6,0A56.033,56.033,0,0,0,163.916,120.3a56.6,56.6,0,0,0,0-22.595A56.041,56.041,0,0,0,120.3,54.081,56.469,56.469,0,0,0,109,52.943Z" fill="#525252"></path></clipPath></defs><g id="Group_1436" data-name="Group 1436" transform="translate(-1082 -2670)"><g id="Group_1418" data-name="Group 1418" transform="translate(0 1841)"><rect id="Rectangle_5016" data-name="Rectangle 5016" width="246" height="31" transform="translate(1082 1139)" fill="#dbdbdb"></rect><text id="Margin:_20_634" data-name="Margin: 20,634" transform="translate(1137 1161)" font-size="18" font-family="Merriweather-Bold, Merriweather" font-weight="700"><tspan x="0" y="0">Margin: 20,634</tspan></text></g><g id="Group_1421" data-name="Group 1421" transform="translate(7 1814)"><text id="Total_Votes" data-name="Total Votes" transform="translate(1168 971)" fill="#585858" font-size="16" font-family="Merriweather-Bold, Merriweather" font-weight="700"><tspan x="0" y="0">Total Votes</tspan></text><text id="_1_59_676" data-name="1,59,676" transform="translate(1167 994)" fill="#033b5f" font-size="22" font-family="Merriweather-Bold, Merriweather" font-weight="700"><tspan x="0" y="0">1,59,676</tspan></text><text id="Total_Votes-2" data-name="Total Votes" transform="translate(1214 1033)" fill="#585858" font-size="18" font-family="Merriweather-Bold, Merriweather" font-weight="700"><tspan x="-28" y="0">(2016)</tspan></text></g><text id="Opponent_s_votes" data-name="Opponent&#x2019;s votes" transform="translate(1208 2962)" fill="#035c96" font-size="14" font-family="Merriweather-Bold, Merriweather" font-weight="700"><tspan x="0" y="0">Opponent’s votes</tspan></text><text id="My_votes" data-name="My votes" transform="translate(1082 2962)" fill="#035c96" font-size="14" font-family="Merriweather-Bold, Merriweather" font-weight="700"><tspan x="0" y="0">My votes</tspan></text><text id="Others" transform="translate(1095 2710)" fill="#035c96" font-size="14" font-family="Merriweather-Bold, Merriweather" font-weight="700"><tspan x="0" y="0">Others</tspan></text><text id="_54_351" data-name="54,351" transform="translate(1265 2940)" fill="#585858" font-size="19" font-family="Merriweather-Bold, Merriweather" font-weight="700"><tspan x="0" y="0">54,351</tspan></text><text id="_30340" data-name="30340" transform="translate(1095 2688)" fill="#585858" font-size="18" font-family="Merriweather-Bold, Merriweather" font-weight="700"><tspan x="0" y="0">30340</tspan></text><text id="_74_985" data-name="74,985" transform="translate(1082 2940)" fill="#585858" font-size="18" font-family="Merriweather-Bold, Merriweather" font-weight="700"><tspan x="0" y="0">74,985</tspan></text><path id="Path_11411" data-name="Path 11411" d="M0,51.5V0H11.846" transform="translate(1214.25 2682.131) rotate(90)" fill="none" stroke="#707070" stroke-width="1" stroke-dasharray="2" opacity="0.603"></path><circle id="Ellipse_371" data-name="Ellipse 371" cx="4" cy="4" r="4" transform="translate(1159 2678)" fill="#880505"></circle><g id="Group_1420" data-name="Group 1420" transform="translate(1106.578 2876.427)"><path id="Path_11407" data-name="Path 11407" d="M723.109,898.257V855.2h22.828" transform="translate(-719.579 -855.198)" fill="none" stroke="#707070" stroke-width="1" stroke-dasharray="2" opacity="0.603"></path><ellipse id="Ellipse_367" data-name="Ellipse 367" cx="3.5" cy="4" rx="3.5" ry="4" transform="translate(0.422 36.573)" fill="#398af5"></ellipse></g><g id="Group_1422" data-name="Group 1422" transform="translate(1302.368 2876.427)"><path id="Path_11407-2" data-name="Path 11407" d="M735.979,898.257V855.2h-12.87" transform="translate(-723.109 -855.198)" fill="none" stroke="#707070" stroke-width="1" stroke-dasharray="2" opacity="0.603"></path><ellipse id="Ellipse_367-2" data-name="Ellipse 367" cx="3.5" cy="4" rx="3.5" ry="4" transform="translate(8.632 36.573)" fill="#c93d3d"></ellipse></g><g id="Group_1433" data-name="Group 1433" transform="translate(174 -332)"><path id="Subtraction_8" data-name="Subtraction 8" d="M109,218a109.8,109.8,0,0,1-21.967-2.214A108.96,108.96,0,0,1,2.215,130.968a110.063,110.063,0,0,1,0-43.934A108.958,108.958,0,0,1,87.032,2.215a110.063,110.063,0,0,1,43.934,0,108.958,108.958,0,0,1,84.818,84.817,110.062,110.062,0,0,1,0,43.934,108.958,108.958,0,0,1-84.817,84.818A109.8,109.8,0,0,1,109,218Zm0-165.057a56.468,56.468,0,0,0-11.3,1.139A56.047,56.047,0,0,0,54.081,97.7a56.6,56.6,0,0,0,0,22.595A56.056,56.056,0,0,0,97.7,163.918a56.6,56.6,0,0,0,22.6,0A56.033,56.033,0,0,0,163.916,120.3a56.6,56.6,0,0,0,0-22.595A56.041,56.041,0,0,0,120.3,54.081,56.469,56.469,0,0,0,109,52.943Z" transform="translate(936 3028)" fill="#880505" opacity="0.85"></path><g id="Mask_Group_173" data-name="Mask Group 173" transform="translate(936 3028)" clip-path="url(#clip-path)"><path id="Path_11415" data-name="Path 11415" d="M6296.3,2901.321l-58.58-22.861s-2.89-7.3-16.354,21.64c-12.087,25.979.487,34.042,2.409,47.485,4.038,28.243,51.341,82.034,73.6,85.981,11.73,2.081,58.6.9,94.746-11.793,32.4-11.381,55.019-34.323,55.019-34.323l-61.323-39.175s-76.29,24.86-85.305-9.778Z" transform="translate(-6232.584 -2811.504)" fill="#5268b3"></path><path id="Path_11416" data-name="Path 11416" d="M6407.708,2768.622l-.021,61.317s34.448,15.818,36.42,44.171c1.535,22.059,5.57,31.632,8.4,34.517a1,1,0,0,1,0,1.351l47.338,30.012s2.836,34.093,12.83,6.816,21.935-73.291,16.135-90.191-15.718-58.021-45.53-70.635-61.309-20.205-62.413-20.205S6407.708,2768.622,6407.708,2768.622Z" transform="translate(-6298.337 -2772.452)" fill="#c93d3d"></path></g></g></g></svg>