<svg xmlns="http://www.w3.org/2000/svg" xmlns:xlink="http://www.w3.org/1999/xlink" width="251" height="341" viewBox="0 0 251 341"><defs><clipPath id="clip-path"><path id="Subtraction_2" data-name="Subtraction 2" d="M108.5,217a109.3,109.3,0,0,1-21.866-2.2A108.469,108.469,0,0,1,2.2,130.366a109.558,109.558,0,0,1,0-43.733A108.5,108.5,0,0,1,86.633,2.2a109.558,109.558,0,0,1,43.733,0A108.47,108.47,0,0,1,214.8,86.633a109.559,109.559,0,0,1,0,43.733A108.459,108.459,0,0,1,130.37,214.8,109.3,109.3,0,0,1,108.5,217Zm0-164.3a56.24,56.24,0,0,0-11.258,1.136A55.777,55.777,0,0,0,53.834,97.254a56.344,56.344,0,0,0,0,22.491,55.784,55.784,0,0,0,43.424,43.421,56.343,56.343,0,0,0,22.491,0,55.784,55.784,0,0,0,43.421-43.424,56.342,56.342,0,0,0,0-22.491A55.784,55.784,0,0,0,119.746,53.83,56.212,56.212,0,0,0,108.5,52.7Z" fill="#525252"></path></clipPath></defs><g id="Group_1438" data-name="Group 1438" transform="translate(-1082 -1754)"><g id="Group_1408" data-name="Group 1408" transform="translate(0 925)"><rect id="Rectangle_5016" data-name="Rectangle 5016" width="246" height="31" transform="translate(1082 1139)" fill="#dbdbdb"></rect><text id="Margin:_7_792" data-name="Margin: 7,792" transform="translate(1143 1161)" font-size="18" font-family="Merriweather-Bold, Merriweather" font-weight="700"><tspan x="0" y="0">Margin: 7,792</tspan></text></g><g id="Group_1397" data-name="Group 1397"><text id="Total_Votes" data-name="Total Votes" transform="translate(1174 1870)" fill="#585858" font-size="16" font-family="Merriweather-Bold, Merriweather" font-weight="700"><tspan x="0" y="0">Total Votes</tspan></text><text id="_1_00_076" data-name="1,00,076" transform="translate(1173 1896)" fill="#033b5f" font-size="22" font-family="Merriweather-Bold, Merriweather" font-weight="700"><tspan x="0" y="0">1,00,076</tspan></text></g><text id="Opponent_s_votes" data-name="Opponent&#x2019;s votes" transform="translate(1208 2046)" fill="#035c96" font-size="14" font-family="Merriweather-Bold, Merriweather" font-weight="700"><tspan x="0" y="0">Opponent’s votes</tspan></text><text id="My_votes" data-name="My votes" transform="translate(1082 2046)" fill="#035c96" font-size="14" font-family="Merriweather-Bold, Merriweather" font-weight="700"><tspan x="0" y="0">My votes</tspan></text><text id="Others" transform="translate(1106 1794)" fill="#035c96" font-size="14" font-family="Merriweather-Bold, Merriweather" font-weight="700"><tspan x="0" y="0">Others</tspan></text><text id="_43_307" data-name="43,307" transform="translate(1264 2024)" fill="#585858" font-size="19" font-family="Merriweather-Bold, Merriweather" font-weight="700"><tspan x="0" y="0">43,307</tspan></text><text id="_5670" data-name="5670" transform="translate(1107 1772)" fill="#585858" font-size="18" font-family="Merriweather-Bold, Merriweather" font-weight="700"><tspan x="0" y="0">5670</tspan></text><text id="_51_099" data-name="51,099" transform="translate(1084 2024)" fill="#585858" font-size="18" font-family="Merriweather-Bold, Merriweather" font-weight="700"><tspan x="0" y="0">51,099</tspan></text><path id="Path_11409" data-name="Path 11409" d="M0,51.5V0H11.846" transform="translate(1214.25 1766.131) rotate(90)" fill="none" stroke="#707070" stroke-width="1" stroke-dasharray="2" opacity="0.603"></path><circle id="Ellipse_369" data-name="Ellipse 369" cx="4" cy="4" r="4" transform="translate(1159 1762)" fill="#880505"></circle><g id="Group_1410" data-name="Group 1410" transform="translate(1106.578 1960.427)"><path id="Path_11407" data-name="Path 11407" d="M723.109,898.257V855.2h22.828" transform="translate(-719.579 -855.198)" fill="none" stroke="#707070" stroke-width="1" stroke-dasharray="2" opacity="0.603"></path><ellipse id="Ellipse_367" data-name="Ellipse 367" cx="3.5" cy="4" rx="3.5" ry="4" transform="translate(0.422 36.573)" fill="#398af5"></ellipse></g><g id="Group_1412" data-name="Group 1412" transform="translate(1302.368 1960.427)"><path id="Path_11407-2" data-name="Path 11407" d="M735.979,898.257V855.2h-12.87" transform="translate(-723.109 -855.198)" fill="none" stroke="#707070" stroke-width="1" stroke-dasharray="2" opacity="0.603"></path><ellipse id="Ellipse_367-2" data-name="Ellipse 367" cx="3.5" cy="4" rx="3.5" ry="4" transform="translate(8.632 36.573)" fill="#c93d3d"></ellipse></g><g id="Group_1430" data-name="Group 1430"><path id="Subtraction_4" data-name="Subtraction 4" d="M108.5,217a109.3,109.3,0,0,1-21.866-2.2A108.469,108.469,0,0,1,2.2,130.366a109.558,109.558,0,0,1,0-43.733A108.5,108.5,0,0,1,86.633,2.2a109.558,109.558,0,0,1,43.733,0A108.47,108.47,0,0,1,214.8,86.633a109.559,109.559,0,0,1,0,43.733A108.459,108.459,0,0,1,130.37,214.8,109.3,109.3,0,0,1,108.5,217Zm0-164.3a56.24,56.24,0,0,0-11.258,1.136A55.777,55.777,0,0,0,53.834,97.254a56.344,56.344,0,0,0,0,22.491,55.784,55.784,0,0,0,43.424,43.421,56.343,56.343,0,0,0,22.491,0,55.784,55.784,0,0,0,43.421-43.424,56.342,56.342,0,0,0,0-22.491A55.784,55.784,0,0,0,119.746,53.83,56.212,56.212,0,0,0,108.5,52.7Z" transform="translate(1111 1781)" fill="#880505"></path><g id="Mask_Group_171" data-name="Mask Group 171" transform="translate(1111 1781)" clip-path="url(#clip-path)"><path id="Path_11403" data-name="Path 11403" d="M6320.724,2843.311h0l-28.8-54.095s-20.251-4.5-40.023,25.184-28.586,73.52-24.566,101.634,51.106,81.658,73.263,85.586,98.318-5.963,98.318-5.963l-33.121-63.776s-53.1,9.586-62.076-24.894-4.057-49.854,6.4-54.913S6320.724,2843.311,6320.724,2843.311Z" transform="translate(-6236.102 -2780.575)" fill="#4673cc"></path><path id="Path_11404" data-name="Path 11404" d="M6406.491,2769.258v60.47s35.065,15.662,37.028,43.885,14.386,30.812-4.243,43.9-9.419,9.565-9.419,9.565l31.464,60.592s40.5-14.542,50.453-41.694,21.834-72.955,16.061-89.778-15.646-57.755-45.321-70.311-61.028-20.113-62.126-20.113S6406.491,2769.258,6406.491,2769.258Z" transform="translate(-6298.417 -2772.421)" fill="#c93d3d"></path></g></g><text id="Total_Votes-2" data-name="Total Votes" transform="translate(1220 1928)" fill="#585858" font-size="18" font-family="Merriweather-Bold, Merriweather" font-weight="700"><tspan x="-30" y="0">(2006)</tspan></text></g></svg>