<svg xmlns="http://www.w3.org/2000/svg" xmlns:xlink="http://www.w3.org/1999/xlink" width="252" height="341" viewBox="0 0 252 341"><defs><clipPath id="clip-path"><path id="Subtraction_2" data-name="Subtraction 2" d="M110,220a110.874,110.874,0,0,1-22.194-2.24,109.971,109.971,0,0,1-85.57-85.594,111.072,111.072,0,0,1,0-44.338,109.97,109.97,0,0,1,85.6-85.592,111.072,111.072,0,0,1,44.338,0,109.97,109.97,0,0,1,85.592,85.6,111.072,111.072,0,0,1,0,44.338,109.97,109.97,0,0,1-85.6,85.592A110.81,110.81,0,0,1,110,220Zm0-166.572a56.987,56.987,0,0,0-11.4,1.149A56.581,56.581,0,0,0,54.57,98.6a57.123,57.123,0,0,0,0,22.8,56.579,56.579,0,0,0,44.021,44.029,57.122,57.122,0,0,0,22.8,0,56.579,56.579,0,0,0,44.029-44.021,57.122,57.122,0,0,0,0-22.8A56.572,56.572,0,0,0,121.4,54.57,56.988,56.988,0,0,0,110,53.428Z" transform="translate(0 0.023)" fill="#525252"></path></clipPath></defs><g id="Group_1439" data-name="Group 1439" transform="translate(-1082 -1297)"><g id="Group_1403" data-name="Group 1403" transform="translate(0 468)"><rect id="Rectangle_5016" data-name="Rectangle 5016" width="246" height="31" transform="translate(1082 1139)" fill="#dbdbdb"></rect><text id="Margin:_7_434" data-name="Margin: 7,434" transform="translate(1143 1161)" font-size="18" font-family="Merriweather-Bold, Merriweather" font-weight="700"><tspan x="0" y="0">Margin: 7,434</tspan></text></g><g id="Group_1406" data-name="Group 1406" transform="translate(7 443)"><text id="Total_Votes" data-name="Total Votes" transform="translate(1169 971)" fill="#585858" font-size="16" font-family="Merriweather-Bold, Merriweather" font-weight="700"><tspan x="0" y="0">Total Votes</tspan></text><text id="Total_Votes-2" data-name="Total Votes" transform="translate(1214 1030)" fill="#585858" font-size="18" font-family="Merriweather-Bold, Merriweather" font-weight="700"><tspan x="-28" y="0">(2001)</tspan></text><text id="_97_515" data-name="97,515" transform="translate(1178 997)" fill="#033b5f" font-size="22" font-family="Merriweather-Bold, Merriweather" font-weight="700"><tspan x="0" y="0">97,515</tspan></text></g><text id="Opponent_s_votes" data-name="Opponent&#x2019;s votes" transform="translate(1209 1589)" fill="#035c96" font-size="14" font-family="Merriweather-Bold, Merriweather" font-weight="700"><tspan x="0" y="0">Opponent’s votes</tspan></text><text id="My_votes" data-name="My votes" transform="translate(1082 1589)" fill="#035c96" font-size="14" font-family="Merriweather-Bold, Merriweather" font-weight="700"><tspan x="0" y="0">My votes</tspan></text><text id="Others" transform="translate(1106 1337)" fill="#035c96" font-size="14" font-family="Merriweather-Bold, Merriweather" font-weight="700"><tspan x="0" y="0">Others</tspan></text><text id="_41_425" data-name="41,425" transform="translate(1266 1567)" fill="#585858" font-size="19" font-family="Merriweather-Bold, Merriweather" font-weight="700"><tspan x="0" y="0">41,425</tspan></text><text id="_7_231" data-name="7,231" transform="translate(1106 1315)" fill="#585858" font-size="18" font-family="Merriweather-Bold, Merriweather" font-weight="700"><tspan x="0" y="0">7,231</tspan></text><text id="_48_859" data-name="48,859" transform="translate(1082 1567)" fill="#585858" font-size="18" font-family="Merriweather-Bold, Merriweather" font-weight="700"><tspan x="0" y="0">48,859</tspan></text><path id="Path_11408" data-name="Path 11408" d="M0,43.318V0H11.846" transform="translate(1206.065 1309.131) rotate(90)" fill="none" stroke="#707070" stroke-width="1" stroke-dasharray="2" opacity="0.603"></path><circle id="Ellipse_368" data-name="Ellipse 368" cx="4" cy="4" r="4" transform="translate(1159 1305)" fill="#880505"></circle><g id="Group_1407" data-name="Group 1407" transform="translate(1106.578 1503.427)"><path id="Path_11407" data-name="Path 11407" d="M723.109,898.257V855.2h22.828" transform="translate(-719.579 -855.198)" fill="none" stroke="#707070" stroke-width="1" stroke-dasharray="2" opacity="0.603"></path><ellipse id="Ellipse_367" data-name="Ellipse 367" cx="3.5" cy="4" rx="3.5" ry="4" transform="translate(0.422 36.573)" fill="#398af5"></ellipse></g><g id="Group_1405" data-name="Group 1405" transform="translate(1302.368 1503.427)"><path id="Path_11407-2" data-name="Path 11407" d="M735.979,898.257V855.2h-12.87" transform="translate(-723.109 -855.198)" fill="none" stroke="#707070" stroke-width="1" stroke-dasharray="2" opacity="0.603"></path><ellipse id="Ellipse_367-2" data-name="Ellipse 367" cx="3.5" cy="4" rx="3.5" ry="4" transform="translate(8.632 36.573)" fill="#c93d3d"></ellipse></g><g id="Group_1429" data-name="Group 1429" transform="translate(-2500 -2999.023)"><path id="Subtraction_4" data-name="Subtraction 4" d="M110,220a110.874,110.874,0,0,1-22.194-2.24,109.971,109.971,0,0,1-85.57-85.594,111.072,111.072,0,0,1,0-44.338,109.97,109.97,0,0,1,85.6-85.592,111.072,111.072,0,0,1,44.338,0,109.97,109.97,0,0,1,85.592,85.6,111.072,111.072,0,0,1,0,44.338,109.97,109.97,0,0,1-85.6,85.592A110.81,110.81,0,0,1,110,220Zm0-166.572a56.987,56.987,0,0,0-11.4,1.149A56.581,56.581,0,0,0,54.57,98.6a57.123,57.123,0,0,0,0,22.8,56.579,56.579,0,0,0,44.021,44.029,57.122,57.122,0,0,0,22.8,0,56.579,56.579,0,0,0,44.029-44.021,57.122,57.122,0,0,0,0-22.8A56.572,56.572,0,0,0,121.4,54.57,56.988,56.988,0,0,0,110,53.428Z" transform="translate(3609 4320.023)" fill="#880505"></path><g id="Mask_Group_171" data-name="Mask Group 171" transform="translate(3609 4320)" opacity="0.831" clip-path="url(#clip-path)"><path id="Path_11403" data-name="Path 11403" d="M6322.039,2842.994l-29.659-57.11s-20.078-2.3-40.125,27.8-28.984,74.544-24.908,103.049,51.817,82.8,74.284,86.779,99.688-6.047,99.688-6.047l-33.582-64.664s-53.841,9.719-62.94-25.24-4.114-50.549,6.488-55.678S6322.039,2842.994,6322.039,2842.994Z" transform="translate(-6236.237 -2779.384)" fill="#398af5"></path><path id="Path_11404" data-name="Path 11404" d="M6406.491,2768.02v62.758s35.554,15.721,37.543,44.337,14.587,31.241-4.3,44.511-9.551,9.7-9.551,9.7l31.9,61.436s41.069-14.745,51.156-42.275,22.139-73.971,16.285-91.028-15.865-58.559-45.952-71.29-61.878-20.393-62.993-20.393S6406.491,2768.02,6406.491,2768.02Z" transform="translate(-6296.912 -2772.514)" fill="#c93d3d"></path></g></g></g></svg>