<svg xmlns="http://www.w3.org/2000/svg" xmlns:xlink="http://www.w3.org/1999/xlink" width="251" height="341" viewBox="0 0 251 341"><defs><clipPath id="clip-path"><path id="Subtraction_2" data-name="Subtraction 2" d="M109,218a109.8,109.8,0,0,1-21.967-2.214A108.96,108.96,0,0,1,2.215,130.968a110.063,110.063,0,0,1,0-43.934A108.958,108.958,0,0,1,87.032,2.215a110.063,110.063,0,0,1,43.934,0,108.958,108.958,0,0,1,84.818,84.817,110.064,110.064,0,0,1,0,43.934,108.958,108.958,0,0,1-84.817,84.818A109.806,109.806,0,0,1,109,218Zm0-165.057a56.468,56.468,0,0,0-11.3,1.139A56.047,56.047,0,0,0,54.081,97.7a56.6,56.6,0,0,0,0,22.6A56.056,56.056,0,0,0,97.7,163.918a56.6,56.6,0,0,0,22.6,0,56.034,56.034,0,0,0,43.621-43.62,56.6,56.6,0,0,0,0-22.6A56.049,56.049,0,0,0,120.3,54.081,56.469,56.469,0,0,0,109,52.943Z" transform="translate(-0.359 -0.469)" fill="#525252"></path></clipPath></defs><g id="Group_1440" data-name="Group 1440" transform="translate(-1082 -829)"><g id="Group_1402" data-name="Group 1402"><rect id="Rectangle_5016" data-name="Rectangle 5016" width="246" height="31" transform="translate(1082 1139)" fill="#dbdbdb"></rect><text id="Margin:_1_116" data-name="Margin: 1,116" transform="translate(1147 1161)" font-size="18" font-family="Merriweather-Bold, Merriweather" font-weight="700"><tspan x="0" y="0">Margin: 1,116</tspan></text></g><g id="Group_1401" data-name="Group 1401" transform="translate(5 -22)"><text id="Total_Votes" data-name="Total Votes" transform="translate(1169 971)" fill="#585858" font-size="16" font-family="Merriweather-Bold, Merriweather" font-weight="700"><tspan x="0" y="0">Total Votes</tspan></text><text id="Total_Votes-2" data-name="Total Votes" transform="translate(1215 1027)" fill="#585858" font-size="18" font-family="Merriweather-Bold, Merriweather" font-weight="700"><tspan x="-29" y="0">(1996)</tspan></text><text id="_87_728" data-name="87,728" transform="translate(1180 997)" fill="#033b5f" font-size="22" font-family="Merriweather-Bold, Merriweather" font-weight="700"><tspan x="0" y="0">87,728</tspan></text></g><text id="Opponent_s_votes" data-name="Opponent&#x2019;s votes" transform="translate(1208 1121)" fill="#035c96" font-size="14" font-family="Merriweather-Bold, Merriweather" font-weight="700"><tspan x="0" y="0">Opponent’s votes</tspan></text><text id="My_votes" data-name="My votes" transform="translate(1082 1121)" fill="#035c96" font-size="14" font-family="Merriweather-Bold, Merriweather" font-weight="700"><tspan x="0" y="0">My votes</tspan></text><text id="Others" transform="translate(1106 869)" fill="#035c96" font-size="14" font-family="Merriweather-Bold, Merriweather" font-weight="700"><tspan x="0" y="0">Others</tspan></text><text id="_39_723" data-name="39,723" transform="translate(1264 1099)" fill="#585858" font-size="19" font-family="Merriweather-Bold, Merriweather" font-weight="700"><tspan x="0" y="0">39,723</tspan></text><text id="_9_398" data-name="9,398" transform="translate(1104 847)" fill="#585858" font-size="18" font-family="Merriweather-Bold, Merriweather" font-weight="700"><tspan x="0" y="0">9,398</tspan></text><text id="_38_607" data-name="38,607" transform="translate(1083 1099)" fill="#585858" font-size="18" font-family="Merriweather-Bold, Merriweather" font-weight="700"><tspan x="0" y="0">38,607</tspan></text><g id="Group_1397" data-name="Group 1397" transform="translate(1110.359 855.469)"><path id="Subtraction_4" data-name="Subtraction 4" d="M109,218a109.8,109.8,0,0,1-21.967-2.214A108.96,108.96,0,0,1,2.215,130.968a110.063,110.063,0,0,1,0-43.934A108.958,108.958,0,0,1,87.032,2.215a110.063,110.063,0,0,1,43.934,0,108.958,108.958,0,0,1,84.818,84.817,110.064,110.064,0,0,1,0,43.934,108.958,108.958,0,0,1-84.817,84.818A109.806,109.806,0,0,1,109,218Zm0-165.057a56.468,56.468,0,0,0-11.3,1.139A56.047,56.047,0,0,0,54.081,97.7a56.6,56.6,0,0,0,0,22.6A56.056,56.056,0,0,0,97.7,163.918a56.6,56.6,0,0,0,22.6,0,56.034,56.034,0,0,0,43.621-43.62,56.6,56.6,0,0,0,0-22.6A56.049,56.049,0,0,0,120.3,54.081,56.469,56.469,0,0,0,109,52.943Z" transform="translate(-0.359 -0.469)" fill="#880505"></path><g id="Mask_Group_171" data-name="Mask Group 171" clip-path="url(#clip-path)"><path id="Path_11403" data-name="Path 11403" d="M6340.671,2828.627l-5.281-60.072s-63.5,9.014-83.367,38.839-28.723,73.873-24.684,102.121,51.352,82.049,73.614,86,44.367,1.8,44.367,1.8v-66.828s-32.213,4.584-41.229-30.06-4.077-50.094,6.429-55.177S6340.671,2828.627,6340.671,2828.627Z" transform="translate(-6236.441 -2773.9)" fill="#4673cc"></path><path id="Path_11404" data-name="Path 11404" d="M6407.815,2767.6v62.516s34.249,15.654,36.221,44.012,14.455,30.959-4.263,44.111-32.31,14.71-32.31,14.71v66.057s39.665,1.12,51.5-7.822,43.66-17.064,53.656-44.346,21.938-73.3,16.137-90.208-15.721-58.032-45.538-70.648-61.321-20.209-62.425-20.209S6407.815,2767.6,6407.815,2767.6Z" transform="translate(-6298.53 -2772.947)" fill="#c93d3d"></path></g></g><path id="Path_11406" data-name="Path 11406" d="M0,51.5V0H11.846" transform="translate(1214.25 841.131) rotate(90)" fill="none" stroke="#707070" stroke-width="1" stroke-dasharray="2" opacity="0.603"></path><circle id="Ellipse_366" data-name="Ellipse 366" cx="4" cy="4" r="4" transform="translate(1159 837)" fill="#880505"></circle><g id="Group_1398" data-name="Group 1398" transform="translate(1106.578 1035.427)"><path id="Path_11407" data-name="Path 11407" d="M723.109,898.257V855.2h22.828" transform="translate(-719.579 -855.198)" fill="none" stroke="#707070" stroke-width="1" stroke-dasharray="2" opacity="0.603"></path><ellipse id="Ellipse_367" data-name="Ellipse 367" cx="3.5" cy="4" rx="3.5" ry="4" transform="translate(0.422 36.573)" fill="#398af5"></ellipse></g><g id="Group_1399" data-name="Group 1399" transform="translate(1302.368 1035.427)"><path id="Path_11407-2" data-name="Path 11407" d="M735.979,898.257V855.2h-12.87" transform="translate(-723.109 -855.198)" fill="none" stroke="#707070" stroke-width="1" stroke-dasharray="2" opacity="0.603"></path><ellipse id="Ellipse_367-2" data-name="Ellipse 367" cx="3.5" cy="4" rx="3.5" ry="4" transform="translate(8.632 36.573)" fill="#c93d3d"></ellipse></g></g></svg>