<svg xmlns="http://www.w3.org/2000/svg" xmlns:xlink="http://www.w3.org/1999/xlink" width="251" height="341" viewBox="0 0 251 341"><defs><clipPath id="clip-path"><path id="Subtraction_9" data-name="Subtraction 9" d="M109,218a109.8,109.8,0,0,1-21.967-2.214A108.96,108.96,0,0,1,2.215,130.968a110.063,110.063,0,0,1,0-43.934A108.958,108.958,0,0,1,87.032,2.215a110.063,110.063,0,0,1,43.934,0,108.958,108.958,0,0,1,84.818,84.817,110.062,110.062,0,0,1,0,43.934,108.958,108.958,0,0,1-84.817,84.818A109.8,109.8,0,0,1,109,218Zm0-165.057a56.468,56.468,0,0,0-11.3,1.139A56.047,56.047,0,0,0,54.081,97.7a56.6,56.6,0,0,0,0,22.595A56.055,56.055,0,0,0,97.7,163.918a56.6,56.6,0,0,0,22.595,0,56.034,56.034,0,0,0,43.621-43.62,56.6,56.6,0,0,0,0-22.6A56.049,56.049,0,0,0,120.3,54.081,56.469,56.469,0,0,0,109,52.943Z" fill="#525252"></path></clipPath></defs><g id="Group_1435" data-name="Group 1435" transform="translate(-1082 -3117)"><g id="Group_1423" data-name="Group 1423" transform="translate(0 2288)"><rect id="Rectangle_5016" data-name="Rectangle 5016" width="246" height="31" transform="translate(1082 1139)" fill="#dbdbdb"></rect><text id="Margin:_21_301" data-name="Margin: 21,301" transform="translate(1141 1161)" font-size="18" font-family="Merriweather-Bold, Merriweather" font-weight="700"><tspan x="0" y="0">Margin: 21,301</tspan></text></g><g id="Group_1426" data-name="Group 1426" transform="translate(7 2259)"><text id="Total_Votes" data-name="Total Votes" transform="translate(1167 971)" fill="#585858" font-size="16" font-family="Merriweather-Bold, Merriweather" font-weight="700"><tspan x="0" y="0">Total Votes</tspan></text><text id="_1_57_481" data-name="1,57,481" transform="translate(1168 997)" fill="#033b5f" font-size="22" font-family="Merriweather-Bold, Merriweather" font-weight="700"><tspan x="0" y="0">1,57,481</tspan></text><text id="Total_Votes-2" data-name="Total Votes" transform="translate(1213 1031)" fill="#585858" font-size="18" font-family="Merriweather-Bold, Merriweather" font-weight="700"><tspan x="-28" y="0">(2021)</tspan></text></g><text id="Opponent_s_votes" data-name="Opponent&#x2019;s votes" transform="translate(1208 3409)" fill="#035c96" font-size="14" font-family="Merriweather-Bold, Merriweather" font-weight="700"><tspan x="0" y="0">Opponent’s votes</tspan></text><text id="My_votes" data-name="My votes" transform="translate(1082 3409)" fill="#035c96" font-size="14" font-family="Merriweather-Bold, Merriweather" font-weight="700"><tspan x="0" y="0">My votes</tspan></text><text id="Others" transform="translate(1100 3157)" fill="#035c96" font-size="14" font-family="Merriweather-Bold, Merriweather" font-weight="700"><tspan x="0" y="0">Others</tspan></text><text id="_60_963" data-name="60,963" transform="translate(1262 3387)" fill="#585858" font-size="19" font-family="Merriweather-Bold, Merriweather" font-weight="700"><tspan x="0" y="0">60,963</tspan></text><text id="_15254" data-name="15254" transform="translate(1101 3135)" fill="#585858" font-size="18" font-family="Merriweather-Bold, Merriweather" font-weight="700"><tspan x="0" y="0">15254</tspan></text><text id="_82_264" data-name="82,264" transform="translate(1082 3387)" fill="#585858" font-size="18" font-family="Merriweather-Bold, Merriweather" font-weight="700"><tspan x="0" y="0">82,264</tspan></text><path id="Path_11412" data-name="Path 11412" d="M0,51.5V0H11.846" transform="translate(1214.25 3129.131) rotate(90)" fill="none" stroke="#707070" stroke-width="1" stroke-dasharray="2" opacity="0.603"></path><circle id="Ellipse_372" data-name="Ellipse 372" cx="4" cy="4" r="4" transform="translate(1159 3125)" fill="#880505"></circle><g id="Group_1425" data-name="Group 1425" transform="translate(1106.578 3323.427)"><path id="Path_11407" data-name="Path 11407" d="M723.109,898.257V855.2h22.828" transform="translate(-719.579 -855.198)" fill="none" stroke="#707070" stroke-width="1" stroke-dasharray="2" opacity="0.603"></path><ellipse id="Ellipse_367" data-name="Ellipse 367" cx="3.5" cy="4" rx="3.5" ry="4" transform="translate(0.422 36.573)" fill="#398af5"></ellipse></g><g id="Group_1427" data-name="Group 1427" transform="translate(1302.368 3323.427)"><path id="Path_11407-2" data-name="Path 11407" d="M735.979,898.257V855.2h-12.87" transform="translate(-723.109 -855.198)" fill="none" stroke="#707070" stroke-width="1" stroke-dasharray="2" opacity="0.603"></path><ellipse id="Ellipse_367-2" data-name="Ellipse 367" cx="3.5" cy="4" rx="3.5" ry="4" transform="translate(8.632 36.573)" fill="#c93d3d"></ellipse></g><g id="Group_1434" data-name="Group 1434" transform="translate(-191 -71)"><path id="Subtraction_10" data-name="Subtraction 10" d="M109,218a109.8,109.8,0,0,1-21.967-2.214A108.96,108.96,0,0,1,2.215,130.968a110.063,110.063,0,0,1,0-43.934A108.958,108.958,0,0,1,87.032,2.215a110.063,110.063,0,0,1,43.934,0,108.958,108.958,0,0,1,84.818,84.817,110.062,110.062,0,0,1,0,43.934,108.958,108.958,0,0,1-84.817,84.818A109.8,109.8,0,0,1,109,218Zm0-165.057a56.468,56.468,0,0,0-11.3,1.139A56.047,56.047,0,0,0,54.081,97.7a56.6,56.6,0,0,0,0,22.595A56.055,56.055,0,0,0,97.7,163.918a56.6,56.6,0,0,0,22.595,0,56.034,56.034,0,0,0,43.621-43.62,56.6,56.6,0,0,0,0-22.6A56.049,56.049,0,0,0,120.3,54.081,56.469,56.469,0,0,0,109,52.943Z" transform="translate(1301 3214)" fill="#880505"></path><g id="Mask_Group_174" data-name="Mask Group 174" transform="translate(1301 3214)" clip-path="url(#clip-path)"><path id="Path_11417" data-name="Path 11417" d="M6315,2851.238l-40.55-58.886s-39.62,49.025-53.084,77.962c-12.087,25.979.487,34.042,2.409,47.485,4.039,28.243,51.342,82.034,73.6,85.981,11.73,2.081,58.6.9,94.745-11.794,32.4-11.381,29.638-13.389,29.638-13.389l-44.961-48.584s-67.27,13.336-76.286-21.3Z" transform="translate(-6232.584 -2781.717)" fill="#5268b3"></path><path id="Path_11418" data-name="Path 11418" d="M6407.709,2768.622l-.022,61.317s34.449,15.818,36.421,44.171c1.535,22.059,5.57,31.632,8.4,34.517.626.641-10.177,11.857-10.177,11.857l45.96,49.741s14.392,3.858,24.385-23.419,21.935-73.291,16.135-90.191-15.719-58.021-45.53-70.635-61.31-20.205-62.413-20.205S6407.709,2768.622,6407.709,2768.622Z" transform="translate(-6298.336 -2772.452)" fill="#c93d3d"></path></g></g></g></svg>